<?xml version="1.0" encoding="UTF-8"?><svg xmlns="http://www.w3.org/2000/svg" viewBox="0 0 300 300" x="0px" y="0px" width="300px" height="300px" version="1.1" xmlns:xlink="http://www.w3.org/1999/xlink"><title>Investment Colored Icons</title><g id="Layer_2" data-name="Layer 2"><path d="M92.49,178l-34,1.15.77,54h98.55l3.58-2.77.51-24.81s30.89,1.28,39.57-2.93,16.72-6.26,18-24.64S221,142.92,221,142.92l-6.13-11.66H197.68l-.89,12.63-3,2.27-.86,30.8-31.23,1.53-42-.68-11.21,10.45L103,186.57Z" style="fill:#2a94f4;"/><path d="M198.51,130l34.92-.95s6.76-5.17,7.14-7.85-4.78-4.53-5.42-4.53S205,117.79,205,117.79,196.72,125.55,198.51,130Z" style="fill:#ffe3ca;"/><path d="M119.13,177.81a8.8,8.8,0,0,1,3.8-9.87c5.81-4.09,15.6-12.3,17.47-17.94s3.54-9.13,9.6-10.4,7.17-8.94,4.53-10.39S143,127,143,127s-.43-17.36-5.7-18.47-41.7-.85-41.7-.85l-23,1.45-2.21,16.76s-9.36.17-10.73,3.15.68,11.24,6,11,10.8,16.77,13.78,19.24,12.26,7.06,12.77,7.91.85,9,.85,9l13.57,13.87Z" style="fill:#ffe3ca;"/><path d="M73.09,108.28l68.68-.62s-1-8.7-5.49-10.62-8.43-7.27-11-7.91-38-2.3-43.41,0S72.7,106.74,73.09,108.28Z" style="fill:#cce9ff;"/><polygon points="75.64 178.87 84.19 232.49 128.62 232.49 139.79 178.13 118.4 178.87 107.71 189.1 90.83 177.85 75.64 178.87" style="fill:#cce9ff;"/><path d="M106,192.6l-7.41,9.19,4.41,6s-6.64,24-6.45,24h20l-5.81-24.26,5.11-6.13Z" style="fill:#cce9ff;"/><path d="M188.49,97.58H245V83.77l-18.25-17s-2.68-20.56-10.6-20.17-9.06,21.95-9.06,21.95L189.77,84.63Z" style="fill:#cce9ff;"/></g><g id="Layer_1" data-name="Layer 1"><path d="M58.17,236.83H161.8a3.24,3.24,0,0,0,3.23-3.24v-25.9h29.15a29.19,29.19,0,0,0,29.15-29.15V142.92a3.24,3.24,0,0,0-3.24-3.24V133.2h9.71A16.2,16.2,0,0,0,246,117a3.24,3.24,0,0,0-3.23-3.24H210.37A16.21,16.21,0,0,0,194.18,130v9.71a3.24,3.24,0,0,0-3.24,3.24v29.15a3.24,3.24,0,0,1-3.24,3.23H122.93v-3.56a38.52,38.52,0,0,0,22.12-28.82h3.79a9.72,9.72,0,1,0,0-19.43H145.6V107.3a16.23,16.23,0,0,0-13.42-16,9.74,9.74,0,0,0-9.25-6.71H90.55A22.7,22.7,0,0,0,67.88,107.3v16.19H64.64a9.72,9.72,0,0,0,0,19.43h3.79a38.54,38.54,0,0,0,22.12,28.82v3.56H58.17a3.24,3.24,0,0,0-3.24,3.24v55.05a3.24,3.24,0,0,0,3.24,3.24ZM145.6,130h3.24a3.24,3.24,0,1,1,0,6.47H145.6Zm-77.72,6.47H64.64a3.24,3.24,0,1,1,0-6.47h3.24Zm33.3,93.92L106,210.93h1.42l4.86,19.43Zm.43-29.15,5.13-5.14,5.14,5.14-3.24,3.24h-3.8Zm108.76-81H239a9.73,9.73,0,0,1-9.16,6.48H201.21a9.75,9.75,0,0,1,9.16-6.48Zm-9.71,12.95h13v6.48h-13Zm-13,48.58a9.72,9.72,0,0,0,9.72-9.71V146.16h19.43v32.38a22.7,22.7,0,0,1-22.67,22.67H161.8a3.24,3.24,0,0,0-3.24,3.24v25.91H133.27l8.57-48.58Zm-61,48.58H119l-5.42-21.68,2.89-2.89,1,1a3.21,3.21,0,0,0,2.29.95h.23a3.26,3.26,0,0,0,2.36-1.3l11.29-15.06Zm6-48.58-13.3,17.74-8-8,9.72-9.72ZM90.55,91.1h32.38a3.24,3.24,0,0,1,3.24,3.24,3.24,3.24,0,0,0,3.24,3.24,9.72,9.72,0,0,1,9.12,6.48H74.68a16.23,16.23,0,0,1,15.87-13ZM74.36,136.44V120.25a9.71,9.71,0,0,1,9.71-9.71h45.34a9.72,9.72,0,0,1,9.72,9.71v16.19a32.2,32.2,0,0,1-20.61,30.14,3.26,3.26,0,0,0-2.06,3v7.6l-9.72,9.72L97,177.2v-7.6a3.26,3.26,0,0,0-2.06-3,32.17,32.17,0,0,1-20.61-30.14Zm18.09,45.34,9.71,9.72-8,8L80.83,181.78ZM91.2,206.39a3.22,3.22,0,0,0,2.36,1.3h.23a3.23,3.23,0,0,0,2.29-.95l1-1,2.89,2.89L94.5,230.36H86.79l-6.89-39ZM61.4,181.78H71.64l8.57,48.58H61.4Zm0,0" style="fill:#0b4870;"/><path d="M217.5,65.26a3.16,3.16,0,0,0-1.3,0,2,2,0,0,0-.58.2,2.49,2.49,0,0,0-.59.29l-.48.39a3.42,3.42,0,0,0-.68,1.07,3.18,3.18,0,0,0,.68,3.52,3.54,3.54,0,0,0,1.07.68,3,3,0,0,0,2.46,0,3.67,3.67,0,0,0,1.07-.68,3.2,3.2,0,0,0,.68-3.52,3.42,3.42,0,0,0-.68-1.07l-.49-.39a2.42,2.42,0,0,0-.58-.29,2,2,0,0,0-.58-.2Zm0,0" style="fill:#0b4870;"/><path d="M229.8,63.85a25,25,0,0,0-11.15-20.78,3.25,3.25,0,0,0-3.59,0,25,25,0,0,0-11.17,20.78L185.41,82.34a3.23,3.23,0,0,0-.95,2.29v13a3.24,3.24,0,0,0,3.24,3.24h19.43v6.48h6.48v-6.48h6.48v6.48h6.47v-6.48H246a3.24,3.24,0,0,0,3.24-3.24v-13a3.23,3.23,0,0,0-.95-2.29ZM203.89,94.34H190.94V86l12.95-13Zm19.44,0h-13V63.92a18.56,18.56,0,0,1,6.48-14.1,18.59,18.59,0,0,1,6.48,14.1Zm19.43,0h-13V73l13,13Zm0,0" style="fill:#0b4870;"/><path d="M119.7,133.2a3.24,3.24,0,0,1,6.47,0v3.24h6.48V133.2a9.72,9.72,0,0,0-19.43,0v3.24h6.48Zm0,0" style="fill:#0b4870;"/><path d="M93.79,136.44h6.48V133.2a9.72,9.72,0,0,0-19.44,0v3.24h6.48V133.2a3.24,3.24,0,0,1,6.48,0Zm0,0" style="fill:#0b4870;"/><path d="M106.74,162.35a13,13,0,0,0,13-12.95v-6.48H93.79v6.48a13,13,0,0,0,12.95,12.95Zm6.48-12.95a6.48,6.48,0,0,1-13,0Zm0,0" style="fill:#0b4870;"/></g></svg>