<?xml version="1.0" encoding="UTF-8"?>
<svg width="800px" height="600px" viewBox="0 0 800 600" fill="none" xmlns="http://www.w3.org/2000/svg">
  <rect width="800" height="600" fill="#F3F4F6"/>
  <g>
    <ellipse cx="400" cy="500" rx="320" ry="60" fill="#E5E7EB"/>
    <rect x="180" y="180" width="440" height="260" rx="24" fill="#6366F1"/>
    <rect x="210" y="210" width="380" height="200" rx="16" fill="#fff"/>
    <rect x="240" y="250" width="120" height="40" rx="8" fill="#A5B4FC"/>
    <rect x="380" y="250" width="120" height="40" rx="8" fill="#A5B4FC"/>
    <rect x="520" y="250" width="50" height="40" rx="8" fill="#A5B4FC"/>
    <rect x="240" y="310" width="330" height="20" rx="6" fill="#E0E7FF"/>
    <rect x="240" y="340" width="330" height="20" rx="6" fill="#E0E7FF"/>
    <rect x="240" y="370" width="200" height="20" rx="6" fill="#E0E7FF"/>
    <circle cx="600" cy="220" r="30" fill="#C7D2FE"/>
    <circle cx="220" cy="180" r="18" fill="#C7D2FE"/>
    <g>
      <ellipse cx="320" cy="420" rx="18" ry="8" fill="#D1D5DB"/>
      <ellipse cx="480" cy="420" rx="18" ry="8" fill="#D1D5DB"/>
      <rect x="310" y="370" width="20" height="50" rx="8" fill="#F59E42"/>
      <rect x="470" y="370" width="20" height="50" rx="8" fill="#F59E42"/>
      <rect x="330" y="390" width="140" height="10" rx="5" fill="#F59E42"/>
      <rect x="370" y="400" width="60" height="10" rx="5" fill="#F59E42"/>
    </g>
    <g>
      <ellipse cx="400" cy="180" rx="30" ry="12" fill="#D1FAE5"/>
      <rect x="385" y="120" width="30" height="60" rx="10" fill="#10B981"/>
      <rect x="395" y="100" width="10" height="20" rx="5" fill="#10B981"/>
    </g>
    <g>
      <ellipse cx="700" cy="500" rx="18" ry="8" fill="#FDE68A"/>
      <rect x="690" y="470" width="20" height="30" rx="8" fill="#F59E42"/>
    </g>
    <g>
      <ellipse cx="100" cy="500" rx="18" ry="8" fill="#FDE68A"/>
      <rect x="90" y="470" width="20" height="30" rx="8" fill="#F59E42"/>
    </g>
    <text x="400" y="320" text-anchor="middle" fill="#6366F1" font-size="32" font-family="Arial" font-weight="bold">RISK MANAGEMENT</text>
    <text x="400" y="355" text-anchor="middle" fill="#6B7280" font-size="18" font-family="Arial">Secure your business, manage your risks</text>
  </g>
</svg> 